<svg version="1.1" xmlns="http://www.w3.org/2000/svg" xmlns:xlink="http://www.w3.org/1999/xlink" width="500" height="500"><g data-paper-data="{&quot;description&quot;:&quot;Logo for Market Garden\n======================\n\nThis logo was generated by MarkMaker at http://emblemmatic.org/markmaker/ and may be composed of elements designed by others.\n\nThe font is Terminal Dosis Light designed by multiple designers and released under the OFL license via Google Fonts: https://www.google.com/fonts/specimen/Terminal%20Dosis%20Light. The font includes this copyright statement: Copyright (c) 2011 by Edgar Tolentino, Pablo Impallari, Igino Marini (impallari.com impallari@gmail.com). All rights reserved.\n\nMarkMaker uses semantic data from the Princeton University WordNet database http://wordnet.princeton.edu and font descriptions from Google Fonts https://www.google.com/fonts.&quot;}" fill="none" fill-rule="nonzero" stroke="none" stroke-width="none" stroke-linecap="butt" stroke-linejoin="miter" stroke-miterlimit="10" stroke-dasharray="" stroke-dashoffset="0" font-family="none" font-weight="none" font-size="none" text-anchor="none" style="mix-blend-mode: normal"><path d="M50,401.85624v-303.71248h400v303.71248z" fill="#136850" stroke-width="0"></path><g data-paper-data="{&quot;elementType&quot;:&quot;logo&quot;}" fill="#ffffff" stroke-width="1"><g data-paper-data="{&quot;elementType&quot;:&quot;text&quot;}"><g data-paper-data="{&quot;baseline&quot;:76.80000000000001,&quot;elementType&quot;:&quot;row&quot;}"><g data-paper-data="{&quot;baselineProportion&quot;:0.992248062015504,&quot;fontSize&quot;:100,&quot;baseline&quot;:76.80000000000001,&quot;elementType&quot;:&quot;word&quot;}"><path d="M125.29786,183.63489c2.20634,-4.50093 5.14076,-7.92075 8.80328,-10.25947c3.66252,-2.33872 7.52361,-3.50808 11.58327,-3.50808c5.91298,0 11.00962,2.16221 15.28991,6.48663c4.28029,4.32442 6.42044,10.10502 6.42044,17.34181v37.06645c0,0.61777 -0.2427,1.16936 -0.72809,1.65475c-0.48539,0.48539 -1.03698,0.72809 -1.65475,0.72809c-0.61777,0 -1.1473,-0.2427 -1.58856,-0.72809c-0.44127,-0.48539 -0.6619,-1.03698 -0.6619,-1.65475v-37.06645c0,-6.00124 -1.74301,-10.70073 -5.22902,-14.09849c-3.48601,-3.39776 -7.52361,-5.09664 -12.11279,-5.09664c-4.67743,0 -8.80328,1.83126 -12.37755,5.49378c-3.57427,3.66252 -5.3614,8.22964 -5.3614,13.70135v37.19884c0,1.50031 -0.79428,2.25046 -2.38284,2.25046c-1.50031,0 -2.25046,-0.75015 -2.25046,-2.25046v-37.19884c0,-5.47171 -1.8092,-10.03883 -5.42759,-13.70135c-3.61839,-3.66252 -7.81043,-5.49378 -12.57612,-5.49378c-4.50093,0 -8.47233,1.69888 -11.91422,5.09664c-3.44189,3.39776 -5.16283,8.09726 -5.16283,14.09849v37.19884c0,0.61777 -0.2427,1.1473 -0.72809,1.58856c-0.48539,0.44127 -1.03698,0.6619 -1.65475,0.6619c-0.61777,0 -1.1473,-0.22063 -1.58856,-0.6619c-0.44127,-0.44127 -0.6619,-0.97079 -0.6619,-1.58856v-37.19884c0,-7.23678 2.09602,-13.01739 6.28806,-17.34181c4.19204,-4.32442 9.1563,-6.48663 14.89277,-6.48663c4.05966,0 7.94281,1.16936 11.64946,3.50808c3.70665,2.33872 6.75139,5.75854 9.13423,10.25947z" data-paper-data="{&quot;elementType&quot;:&quot;letter&quot;,&quot;baseline&quot;:47.800000000000004,&quot;baselineProportion&quot;:1,&quot;fontSize&quot;:100}"></path><path d="M187.25179,170.66163h12.31136c8.11932,0 14.07643,2.14015 17.87133,6.42044c3.7949,4.28029 5.69235,9.95058 5.69235,17.01086v36.66931c0,1.58856 -0.75015,2.38284 -2.25046,2.38284c-0.61777,0 -1.16936,-0.22063 -1.65475,-0.6619c-0.48539,-0.44127 -0.72809,-1.01491 -0.72809,-1.72094v-6.88377c-5.82473,6.70726 -12.44374,10.06089 -19.85703,10.06089c-5.47171,0 -9.90645,-1.47825 -13.30421,-4.43474c-3.39776,-2.95649 -5.09664,-7.30297 -5.09664,-13.03945c0,-6.61901 2.62554,-11.18613 7.87662,-13.70135c5.25108,-2.51522 12.90707,-3.77284 22.96796,-3.77284h7.41329v-4.89807c0,-5.38346 -1.61063,-9.86232 -4.83188,-13.43659c-3.22125,-3.57427 -7.92075,-5.3614 -14.09849,-5.3614h-12.31136c-0.61777,0 -1.16936,-0.2427 -1.65475,-0.72809c-0.48539,-0.48539 -0.72809,-1.03698 -0.72809,-1.65475c0,-1.50031 0.79428,-2.25046 2.38284,-2.25046M218.49351,214.74423v-11.11994h-7.28091c-3.97141,0 -7.30297,0.13238 -9.9947,0.39714c-2.69173,0.26476 -5.40552,0.81634 -8.14138,1.65475c-2.73586,0.83841 -4.78775,2.16221 -6.15568,3.97141c-1.36793,1.8092 -2.05189,4.08172 -2.05189,6.81758c0,4.23617 1.25761,7.43535 3.77284,9.59756c2.51522,2.16221 5.80267,3.24331 9.86232,3.24331c4.76569,0 9.28868,-1.67682 13.56897,-5.03045c4.28029,-3.35363 6.42044,-6.53076 6.42044,-9.53137z" data-paper-data="{&quot;elementType&quot;:&quot;letter&quot;,&quot;baseline&quot;:47.2,&quot;baselineProportion&quot;:0.98744769874477,&quot;fontSize&quot;:100}"></path><path d="M261.11994,169.86735h3.3095c1.41206,0 2.11808,0.75015 2.11808,2.25046c0,1.58856 -0.70603,2.38284 -2.11808,2.38284h-3.3095c-4.94219,0 -8.97979,2.29459 -12.11279,6.88377c-3.133,4.58918 -4.6995,9.84026 -4.6995,15.75324v33.75695c0,0.61777 -0.2427,1.1473 -0.72809,1.58856c-0.48539,0.44127 -1.03698,0.6619 -1.65475,0.6619c-0.61777,0 -1.1473,-0.22063 -1.58856,-0.6619c-0.44127,-0.44127 -0.6619,-0.97079 -0.6619,-1.58856v-33.75695c0,-7.23678 2.05189,-13.59103 6.15568,-19.06275c4.10379,-5.47171 9.20042,-8.20757 15.28991,-8.20757z" data-paper-data="{&quot;elementType&quot;:&quot;letter&quot;,&quot;baseline&quot;:47.800000000000004,&quot;baselineProportion&quot;:1,&quot;fontSize&quot;:100}"></path><path d="M279.78554,131.47709c1.58856,0 2.38284,0.75015 2.38284,2.25046v68.57294l35.74265,-31.10935c0.52952,-0.35301 0.97079,-0.52952 1.3238,-0.52952c1.67682,0 2.51522,0.70603 2.51522,2.11808c0,0.88253 -0.26476,1.54444 -0.79428,1.9857l-21.31321,18.53323l24.49034,36.13979c0.26476,0.35301 0.39714,0.79428 0.39714,1.3238c0,0.61777 -0.22063,1.16936 -0.6619,1.65475c-0.44127,0.48539 -0.97079,0.72809 -1.58856,0.72809c-0.70603,0 -1.3238,-0.39714 -1.85332,-1.19142l-24.35796,-35.61027l-13.89992,12.17898v22.23987c0,0.61777 -0.2427,1.16936 -0.72809,1.65475c-0.48539,0.48539 -1.03698,0.72809 -1.65475,0.72809c-0.61777,0 -1.1473,-0.2427 -1.58856,-0.72809c-0.44127,-0.48539 -0.6619,-1.03698 -0.6619,-1.65475v-97.03468c0,-1.50031 0.75015,-2.25046 2.25046,-2.25046z" data-paper-data="{&quot;elementType&quot;:&quot;letter&quot;,&quot;baseline&quot;:76.80000000000001,&quot;baselineProportion&quot;:1,&quot;fontSize&quot;:100}"></path><path d="M354.58035,169.86735c6.35425,0 11.84803,2.27253 16.48133,6.81758c4.63331,4.54505 6.94996,10.21534 6.94996,17.01086c0,2.29459 -0.26476,4.14791 -0.79428,5.55997c-0.52952,1.41206 -1.41206,2.42697 -2.6476,3.04474c-1.23555,0.61777 -2.36078,0.99285 -3.37569,1.12523c-1.01491,0.13238 -2.40491,0.19857 -4.16998,0.19857h-31.37411v6.22187c0,5.91298 2.07396,10.63454 6.22187,14.16468c4.14791,3.53014 9.53137,5.29521 16.15038,5.29521c3.26538,0 6.00124,-0.46333 8.20757,-1.38999c2.20634,-0.92666 3.86109,-1.83126 4.96426,-2.71379c1.10317,-0.88253 1.91951,-1.3238 2.44903,-1.3238c0.61777,0 1.16936,0.26476 1.65475,0.79428c0.48539,0.52952 0.72809,1.05904 0.72809,1.58856c0,0.88253 -0.70603,1.91951 -2.11808,3.11093c-1.41206,1.19142 -3.57427,2.25046 -6.48663,3.17712c-2.91236,0.92666 -6.13362,1.38999 -9.66375,1.38999c-7.85456,0 -14.275,-2.2284 -19.26132,-6.6852c-4.98632,-4.4568 -7.47948,-10.25947 -7.47948,-17.408v-16.54752c0,-6.35425 2.31665,-11.84803 6.94996,-16.48133c4.63331,-4.63331 10.17121,-6.94996 16.61371,-6.94996M335.64999,198.99099h29.78554c3.26538,0 5.40552,-0.30889 6.42044,-0.92666c1.01491,-0.61777 1.52237,-1.94158 1.52237,-3.97141c0,-5.03045 -1.76507,-9.55344 -5.29521,-13.56897c-3.53014,-4.01553 -8.03107,-6.0233 -13.50278,-6.0233c-5.29521,0 -9.77407,1.87539 -13.43659,5.62616c-3.66252,3.75077 -5.49378,8.14138 -5.49378,13.17183z" data-paper-data="{&quot;elementType&quot;:&quot;letter&quot;,&quot;baseline&quot;:47.800000000000004,&quot;baselineProportion&quot;:0.9876033057851241,&quot;fontSize&quot;:100}"></path><path d="M391.91157,214.74423v-72.41197c0,-0.61777 0.2427,-1.1473 0.72809,-1.58856c0.48539,-0.44127 0.99285,-0.6619 1.52237,-0.6619c0.61777,0 1.16936,0.22063 1.65475,0.6619c0.48539,0.44127 0.72809,0.97079 0.72809,1.58856v28.32936h17.87133c0.61777,0 1.1473,0.2427 1.58856,0.72809c0.44127,0.48539 0.6619,1.03698 0.6619,1.65475c0,0.61777 -0.22063,1.1473 -0.6619,1.58856c-0.44127,0.44127 -0.97079,0.6619 -1.58856,0.6619h-17.87133v39.4493c0,5.03045 1.10317,8.58265 3.3095,10.65661c2.20634,2.07396 6.00124,3.11093 11.3847,3.11093h3.04474c0.61777,0 1.1473,0.22063 1.58856,0.6619c0.44127,0.44127 0.6619,0.97079 0.6619,1.58856c0,0.61777 -0.22063,1.16936 -0.6619,1.65475c-0.44127,0.48539 -0.97079,0.72809 -1.58856,0.72809h-3.04474c-12.88501,0 -19.32751,-6.13362 -19.32751,-18.40085z" data-paper-data="{&quot;elementType&quot;:&quot;letter&quot;,&quot;baseline&quot;:70.3,&quot;baselineProportion&quot;:1,&quot;fontSize&quot;:100}"></path></g></g><g data-paper-data="{&quot;baseline&quot;:76.80000000000001,&quot;elementType&quot;:&quot;row&quot;}"><g data-paper-data="{&quot;baselineProportion&quot;:0.7641791044776118,&quot;fontSize&quot;:100,&quot;baseline&quot;:76.80000000000001,&quot;elementType&quot;:&quot;word&quot;}"><path d="M121.06169,273.87107c6.4425,0 11.69358,2.11808 15.75324,6.35425c1.1473,-2.38284 2.93443,-4.32442 5.3614,-5.82473c2.42697,-1.50031 5.00838,-2.25046 7.74424,-2.25046v5.16283c-5.38346,0 -9.00185,1.94158 -10.85518,5.82473c2.29459,3.53014 3.44189,7.67805 3.44189,12.44374v5.95711c0,6.35425 -2.00777,11.60533 -6.0233,15.75324c-4.01553,4.14791 -9.1563,6.22187 -15.42229,6.22187c-4.14791,0 -7.81043,-0.92666 -10.98756,-2.77998c-3.53014,1.58856 -5.29521,3.70665 -5.29521,6.35425c0,1.94158 1.03698,3.46395 3.11093,4.56712c2.07396,1.10317 4.65537,1.78713 7.74424,2.05189c3.08887,0.26476 6.4425,0.68396 10.06089,1.25761c3.61839,0.57365 6.97202,1.27968 10.06089,2.11808c3.08887,0.83841 5.67029,2.40491 7.74424,4.6995c2.07396,2.29459 3.11093,5.25108 3.11093,8.86947c0,5.64822 -2.20634,10.03883 -6.61901,13.17183c-4.41267,3.133 -10.45804,4.6995 -18.13609,4.6995c-7.7663,0 -13.98817,-1.54444 -18.66561,-4.63331c-4.67743,-3.08887 -7.01615,-7.23678 -7.01615,-12.44374c0,-6.97202 4.01553,-11.87009 12.0466,-14.6942c-5.38346,-1.50031 -8.07519,-4.63331 -8.07519,-9.39899c0,-4.05966 2.16221,-7.1044 6.48663,-9.13423c-4.58918,-4.05966 -6.88377,-9.61963 -6.88377,-16.6799v-5.95711c0,-6.4425 1.96364,-11.67152 5.89092,-15.68705c3.92728,-4.01553 9.06804,-6.0233 15.42229,-6.0233M137.87397,301.53853v-5.95711c0,-4.94219 -1.50031,-9.02392 -4.50093,-12.24517c-3.00062,-3.22125 -7.1044,-4.83188 -12.31136,-4.83188c-5.1187,0 -9.17836,1.61063 -12.17898,4.83188c-3.00062,3.22125 -4.50093,7.30297 -4.50093,12.24517v5.82473c0,5.1187 1.50031,9.31074 4.50093,12.57612c3.00062,3.26538 7.1044,4.89807 12.31136,4.89807c5.03045,0 9.06804,-1.63269 12.11279,-4.89807c3.04474,-3.26538 4.56712,-7.41329 4.56712,-12.44374M141.97776,350.78396c0,-1.85332 -0.50746,-3.50808 -1.52237,-4.96426c-1.01491,-1.45618 -2.18427,-2.58141 -3.50808,-3.37569c-1.3238,-0.79428 -3.11093,-1.50031 -5.3614,-2.11808c-2.25046,-0.61777 -4.14791,-1.03698 -5.69235,-1.25761c-1.54444,-0.22063 -3.5522,-0.46333 -6.0233,-0.72809c-2.4711,-0.26476 -4.05966,-0.44127 -4.76569,-0.52952c-3.97141,1.1473 -7.3471,2.86824 -10.12708,5.16283c-2.77998,2.29459 -4.16998,5.07457 -4.16998,8.33995c0,3.7949 1.87539,6.83964 5.62616,9.13423c3.75077,2.29459 8.58265,3.44189 14.49563,3.44189c6.266,0 11.34057,-1.23555 15.22372,-3.70665c3.88315,-2.4711 5.82473,-5.60409 5.82473,-9.39899z" data-paper-data="{&quot;elementType&quot;:&quot;letter&quot;,&quot;baseline&quot;:49.1,&quot;baselineProportion&quot;:0.6744505494505494,&quot;fontSize&quot;:100}"></path><path d="M163.02621,274.66535h12.31136c8.11932,0 14.07643,2.14015 17.87133,6.42044c3.7949,4.28029 5.69235,9.95058 5.69235,17.01086v36.66931c0,1.58856 -0.75015,2.38284 -2.25046,2.38284c-0.61777,0 -1.16936,-0.22063 -1.65475,-0.6619c-0.48539,-0.44127 -0.72809,-1.01491 -0.72809,-1.72094v-6.88377c-5.82473,6.70726 -12.44374,10.06089 -19.85703,10.06089c-5.47171,0 -9.90645,-1.47825 -13.30421,-4.43474c-3.39776,-2.95649 -5.09664,-7.30297 -5.09664,-13.03945c0,-6.61901 2.62554,-11.18613 7.87662,-13.70135c5.25108,-2.51522 12.90707,-3.77284 22.96796,-3.77284h7.41329v-4.89807c0,-5.38346 -1.61063,-9.86232 -4.83188,-13.43659c-3.22125,-3.57427 -7.92075,-5.3614 -14.09849,-5.3614h-12.31136c-0.61777,0 -1.16936,-0.2427 -1.65475,-0.72809c-0.48539,-0.48539 -0.72809,-1.03698 -0.72809,-1.65475c0,-1.50031 0.79428,-2.25046 2.38284,-2.25046M194.26794,318.74795v-11.11994h-7.28091c-3.97141,0 -7.30297,0.13238 -9.9947,0.39714c-2.69173,0.26476 -5.40552,0.81634 -8.14138,1.65475c-2.73586,0.83841 -4.78775,2.16221 -6.15568,3.97141c-1.36793,1.8092 -2.05189,4.08172 -2.05189,6.81758c0,4.23617 1.25761,7.43535 3.77284,9.59756c2.51522,2.16221 5.80267,3.24331 9.86232,3.24331c4.76569,0 9.28868,-1.67682 13.56897,-5.03045c4.28029,-3.35363 6.42044,-6.53076 6.42044,-9.53137z" data-paper-data="{&quot;elementType&quot;:&quot;letter&quot;,&quot;baseline&quot;:47.2,&quot;baselineProportion&quot;:0.98744769874477,&quot;fontSize&quot;:100}"></path><path d="M236.89436,273.87107h3.3095c1.41206,0 2.11808,0.75015 2.11808,2.25046c0,1.58856 -0.70603,2.38284 -2.11808,2.38284h-3.3095c-4.94219,0 -8.97979,2.29459 -12.11279,6.88377c-3.133,4.58918 -4.6995,9.84026 -4.6995,15.75324v33.75695c0,0.61777 -0.2427,1.1473 -0.72809,1.58856c-0.48539,0.44127 -1.03698,0.6619 -1.65475,0.6619c-0.61777,0 -1.1473,-0.22063 -1.58856,-0.6619c-0.44127,-0.44127 -0.6619,-0.97079 -0.6619,-1.58856v-33.75695c0,-7.23678 2.05189,-13.59103 6.15568,-19.06275c4.10379,-5.47171 9.20042,-8.20757 15.28991,-8.20757z" data-paper-data="{&quot;elementType&quot;:&quot;letter&quot;,&quot;baseline&quot;:47.800000000000004,&quot;baselineProportion&quot;:1,&quot;fontSize&quot;:100}"></path><path d="M291.435,235.48081c1.50031,0 2.25046,0.75015 2.25046,2.25046v97.03468c0,0.61777 -0.22063,1.16936 -0.6619,1.65475c-0.44127,0.48539 -0.97079,0.72809 -1.58856,0.72809c-0.61777,0 -1.16936,-0.2427 -1.65475,-0.72809c-0.48539,-0.48539 -0.72809,-1.03698 -0.72809,-1.65475v-6.88377c-1.50031,2.82411 -3.90522,5.20695 -7.21472,7.14853c-3.3095,1.94158 -6.90583,2.91236 -10.78899,2.91236c-6.266,0 -11.75977,-2.42697 -16.48133,-7.28091c-4.72156,-4.85394 -7.08234,-10.45804 -7.08234,-16.81228v-16.15038c0,-6.53076 2.33872,-12.13485 7.01615,-16.81228c4.67743,-4.67743 10.28153,-7.01615 16.81228,-7.01615c8.03107,0 13.94405,3.35363 17.73895,10.06089v-46.20069c0,-1.50031 0.79428,-2.25046 2.38284,-2.25046M252.11808,297.6995v16.15038c0,5.03045 1.87539,9.53137 5.62616,13.50278c3.75077,3.97141 8.09726,5.95711 13.03945,5.95711c4.76569,0 9.00185,-1.74301 12.7085,-5.22902c3.70665,-3.48601 5.55997,-6.59695 5.55997,-9.3328v-21.04845c0,-5.73648 -1.83126,-10.36978 -5.49378,-13.89992c-3.66252,-3.53014 -7.87662,-5.29521 -12.64231,-5.29521c-5.03045,0 -9.42106,1.96364 -13.17183,5.89092c-3.75077,3.92728 -5.62616,8.36202 -5.62616,13.30421z" data-paper-data="{&quot;elementType&quot;:&quot;letter&quot;,&quot;baseline&quot;:76.80000000000001,&quot;baselineProportion&quot;:0.992248062015504,&quot;fontSize&quot;:100}"></path><path d="M333.00238,273.87107c6.35425,0 11.84803,2.27253 16.48133,6.81758c4.63331,4.54505 6.94996,10.21534 6.94996,17.01086c0,2.29459 -0.26476,4.14791 -0.79428,5.55997c-0.52952,1.41206 -1.41206,2.42697 -2.6476,3.04474c-1.23555,0.61777 -2.36078,0.99285 -3.37569,1.12523c-1.01491,0.13238 -2.40491,0.19857 -4.16998,0.19857h-31.37411v6.22187c0,5.91298 2.07396,10.63454 6.22187,14.16468c4.14791,3.53014 9.53137,5.29521 16.15038,5.29521c3.26538,0 6.00124,-0.46333 8.20757,-1.38999c2.20634,-0.92666 3.86109,-1.83126 4.96426,-2.71379c1.10317,-0.88253 1.91951,-1.3238 2.44903,-1.3238c0.61777,0 1.16936,0.26476 1.65475,0.79428c0.48539,0.52952 0.72809,1.05904 0.72809,1.58856c0,0.88253 -0.70603,1.91951 -2.11808,3.11093c-1.41206,1.19142 -3.57427,2.25046 -6.48663,3.17712c-2.91236,0.92666 -6.13362,1.38999 -9.66375,1.38999c-7.85456,0 -14.275,-2.2284 -19.26132,-6.6852c-4.98632,-4.4568 -7.47948,-10.25947 -7.47948,-17.408v-16.54752c0,-6.35425 2.31665,-11.84803 6.94996,-16.48133c4.63331,-4.63331 10.17121,-6.94996 16.61371,-6.94996M314.07201,302.99471h29.78554c3.26538,0 5.40552,-0.30889 6.42044,-0.92666c1.01491,-0.61777 1.52237,-1.94158 1.52237,-3.97141c0,-5.03045 -1.76507,-9.55344 -5.29521,-13.56897c-3.53014,-4.01553 -8.03107,-6.0233 -13.50278,-6.0233c-5.29521,0 -9.77407,1.87539 -13.43659,5.62616c-3.66252,3.75077 -5.49378,8.14138 -5.49378,13.17183z" data-paper-data="{&quot;elementType&quot;:&quot;letter&quot;,&quot;baseline&quot;:47.800000000000004,&quot;baselineProportion&quot;:0.9876033057851241,&quot;fontSize&quot;:100}"></path><path d="M393.10299,273.87107c6.4425,0 11.98041,2.38284 16.61371,7.14853c4.63331,4.76569 6.94996,10.32566 6.94996,16.6799v37.06645c0,0.61777 -0.2427,1.16936 -0.72809,1.65475c-0.48539,0.48539 -1.03698,0.72809 -1.65475,0.72809c-0.61777,0 -1.1473,-0.2427 -1.58856,-0.72809c-0.44127,-0.48539 -0.6619,-1.03698 -0.6619,-1.65475v-37.06645c0,-5.03045 -1.85332,-9.48725 -5.55997,-13.3704c-3.70665,-3.88315 -8.16345,-5.82473 -13.3704,-5.82473c-5.1187,0 -9.53137,1.94158 -13.23802,5.82473c-3.70665,3.88315 -5.55997,8.33995 -5.55997,13.3704v37.19884c0,0.61777 -0.2427,1.1473 -0.72809,1.58856c-0.48539,0.44127 -1.03698,0.6619 -1.65475,0.6619c-0.61777,0 -1.1473,-0.22063 -1.58856,-0.6619c-0.44127,-0.44127 -0.6619,-0.97079 -0.6619,-1.58856v-37.19884c0,-6.35425 2.31665,-11.91422 6.94996,-16.6799c4.63331,-4.76569 10.12708,-7.14853 16.48133,-7.14853z" data-paper-data="{&quot;elementType&quot;:&quot;letter&quot;,&quot;baseline&quot;:47.800000000000004,&quot;baselineProportion&quot;:1,&quot;fontSize&quot;:100}"></path></g></g></g></g></g></svg>