<svg version="1.1" xmlns="http://www.w3.org/2000/svg" xmlns:xlink="http://www.w3.org/1999/xlink" width="500" height="500"><defs><linearGradient x1="94.56903" y1="83.33333" x2="94.56903" y2="416.66667" gradientUnits="userSpaceOnUse" id="color-1"><stop offset="0" stop-color="#62687f"></stop><stop offset="1" stop-color="#7f626c"></stop></linearGradient><linearGradient x1="94.56903" y1="83.33333" x2="94.56903" y2="416.66667" gradientUnits="userSpaceOnUse" id="color-2"><stop offset="0" stop-color="#62687f"></stop><stop offset="1" stop-color="#7f626c"></stop></linearGradient></defs><g data-paper-data="{&quot;description&quot;:&quot;Logo for Market Garden\n======================\n\nThis logo was generated by MarkMaker at http://emblemmatic.org/markmaker/ and may be composed of elements designed by others.\n\nThe font is Work Sans Black designed by Wei Huang and released under the OFL license via Google Fonts: https://www.google.com/fonts/specimen/Work%20Sans. The font includes this copyright statement: Copyright (c) 2014-2015 Wei Huang (wweeiihhuuaanngg@gmail.com)\n\nMarkMaker uses semantic data from the Princeton University WordNet database http://wordnet.princeton.edu and font descriptions from Google Fonts https://www.google.com/fonts.&quot;}" fill="none" fill-rule="nonzero" stroke="none" stroke-width="none" stroke-linecap="butt" stroke-linejoin="miter" stroke-miterlimit="10" stroke-dasharray="" stroke-dashoffset="0" font-family="none" font-weight="none" font-size="none" text-anchor="none" style="mix-blend-mode: normal"><path d="M61.23569,450v-400h377.52861v400z" fill="none" stroke="#77627f" stroke-width="3.5"></path><g data-paper-data="{&quot;elementType&quot;:&quot;logo&quot;}" fill="url(#color-1)" stroke="none" stroke-width="1"><g data-paper-data="{&quot;elementType&quot;:&quot;text&quot;}"><g data-paper-data="{&quot;baseline&quot;:70,&quot;elementType&quot;:&quot;row&quot;}"><g data-paper-data="{&quot;baselineProportion&quot;:0.9859154929577465,&quot;fontSize&quot;:100,&quot;baseline&quot;:70,&quot;elementType&quot;:&quot;word&quot;}"><path d="M168.22394,348.89159h-17.63201v-19.8903l0.26057,-19.2823h-0.26057l-11.11772,39.1726h-16.15544l-10.94401,-39.1726h-0.34743l0.26057,19.2823v19.8903h-17.71887v-57.32576h28.31545l6.60115,25.44916l2.51886,10.68344h0.17371l2.51886,-10.68344l6.60115,-25.44916h26.92573z" data-paper-data="{&quot;elementType&quot;:&quot;letter&quot;,&quot;baseline&quot;:66,&quot;baselineProportion&quot;:1,&quot;fontSize&quot;:100}"></path><path d="M222.24912,338.20815c0.98438,0 1.70819,-0.11581 2.17143,-0.34743l-1.56343,10.16229c-1.96876,1.1581 -4.11124,1.73714 -6.42743,1.73714c-3.53219,0 -6.48534,-0.62248 -8.85944,-1.86743c-2.3741,-1.24495 -3.96648,-3.05448 -4.77715,-5.42858c-1.33181,2.25829 -3.2861,4.03886 -5.86286,5.34172c-2.57676,1.30286 -5.776,1.95429 -9.59772,1.95429c-4.51657,0 -7.87505,-0.88305 -10.07544,-2.64914c-2.20038,-1.7661 -3.30057,-4.32838 -3.30057,-7.68686c0,-3.648 1.30286,-6.55772 3.90857,-8.72915c2.60572,-2.17143 6.94858,-3.92305 13.02858,-5.25486l8.59886,-1.91086v-1.73714c0,-1.33181 -0.33295,-2.3741 -0.99886,-3.12686c-0.66591,-0.75276 -1.63581,-1.12914 -2.90972,-1.12914c-1.38972,0 -2.48991,0.39086 -3.30057,1.17257c-0.81067,0.78171 -1.24495,2.15695 -1.30286,4.12572l-16.50287,-2.51886c0.46324,-4.97981 2.54781,-8.84496 6.25372,-11.59544c3.70591,-2.75048 9.03315,-4.12572 15.98173,-4.12572c7.70134,0 13.39049,1.47657 17.06744,4.42972c3.67696,2.95315 5.51543,7.44077 5.51543,13.46287v12.16001c0,2.3741 0.98438,3.56115 2.95315,3.56115M195.75767,338.90301c1.10019,0 1.99772,-0.36191 2.69257,-1.08572c0.69486,-0.72381 1.04229,-1.78057 1.04229,-3.17029v-4.16915l-2.86629,0.86857c-1.216,0.34743 -2.17143,0.912 -2.86629,1.69372c-0.69486,0.78171 -1.04229,1.72267 -1.04229,2.82286c0,0.98438 0.28952,1.73714 0.86857,2.25829c0.57905,0.52114 1.30286,0.78171 2.17143,0.78171z" data-paper-data="{&quot;elementType&quot;:&quot;letter&quot;,&quot;baseline&quot;:51,&quot;baselineProportion&quot;:0.9807692307692307,&quot;fontSize&quot;:100}"></path><path d="M258.20801,304.59441c2.02667,0 3.53219,0.34743 4.51657,1.04229l-1.65029,16.32915c-0.52114,-0.40533 -1.27391,-0.73829 -2.25829,-0.99886c-0.98438,-0.26057 -2.05562,-0.39086 -3.21372,-0.39086c-2.66362,0 -4.76267,0.63695 -6.29715,1.91086c-1.53448,1.27391 -2.30172,3.12686 -2.30172,5.55886v20.84573h-19.97716v-43.4286h17.97944l0.43429,10.85715c2.08457,-7.81715 6.34058,-11.72572 12.76801,-11.72572z" data-paper-data="{&quot;elementType&quot;:&quot;letter&quot;,&quot;baseline&quot;:51,&quot;baselineProportion&quot;:1,&quot;fontSize&quot;:100}"></path><path d="M291.12689,333.69158l-5.55886,6.77486v8.42515h-19.97716v-60.80004h19.97716v32.74517l12.68115,-15.37373h21.45373l-15.46058,17.02401l16.41601,26.40459h-21.7143z" data-paper-data="{&quot;elementType&quot;:&quot;letter&quot;,&quot;baseline&quot;:70,&quot;baselineProportion&quot;:1,&quot;fontSize&quot;:100}"></path><path d="M365.3898,325.78757c0,2.20038 -0.14476,3.93753 -0.43429,5.21143h-27.62059c0.28952,2.14248 0.89752,3.5901 1.824,4.34286c0.92648,0.75276 2.31619,1.12914 4.16915,1.12914c2.83734,0 4.57448,-1.24495 5.21143,-3.73486l16.06858,4.34286c-0.98438,4.16915 -3.40191,7.32496 -7.25258,9.46744c-3.85067,2.14248 -8.52648,3.21372 -14.02744,3.21372c-8.22248,0 -14.46172,-1.93981 -18.71773,-5.81943c-4.256,-3.87962 -6.384,-9.46744 -6.384,-16.76344c0,-7.1802 2.09905,-12.73906 6.29715,-16.67658c4.1981,-3.93753 10.11886,-5.90629 17.7623,-5.90629c7.46972,0 13.18782,1.91086 17.1543,5.73258c3.96648,3.82172 5.94972,8.97524 5.94972,15.46058M342.37264,317.79671c-1.50552,0 -2.66362,0.43429 -3.47429,1.30286c-0.81067,0.86857 -1.33181,2.3741 -1.56343,4.51657h9.38058c-0.17371,-1.96876 -0.59352,-3.43086 -1.25943,-4.38629c-0.66591,-0.95543 -1.69372,-1.43314 -3.08343,-1.43314z" data-paper-data="{&quot;elementType&quot;:&quot;letter&quot;,&quot;baseline&quot;:51,&quot;baselineProportion&quot;:0.9807692307692307,&quot;fontSize&quot;:100}"></path><path d="M405.43097,346.80702c-1.44762,0.86857 -3.40191,1.57791 -5.86286,2.128c-2.46095,0.5501 -4.82057,0.82514 -7.07886,0.82514c-6.25372,0 -10.91506,-1.20152 -13.98401,-3.60457c-3.06895,-2.40305 -4.60343,-6.35505 -4.60343,-11.85601v-15.37373h-6.688v-13.46287h6.688v-9.20686l19.97716,-5.55886v14.76573h10.94401v13.46287h-10.94401v12.24687c0,1.96876 0.41981,3.37295 1.25943,4.21257c0.83962,0.83962 2.15695,1.25943 3.952,1.25943c2.14248,0 3.96648,-0.37638 5.472,-1.12914z" data-paper-data="{&quot;elementType&quot;:&quot;letter&quot;,&quot;baseline&quot;:67,&quot;baselineProportion&quot;:0.9852941176470589,&quot;fontSize&quot;:100}"></path></g></g><g data-paper-data="{&quot;baseline&quot;:70,&quot;elementType&quot;:&quot;row&quot;}"><g data-paper-data="{&quot;baselineProportion&quot;:0.9859154929577465,&quot;fontSize&quot;:100,&quot;baseline&quot;:70,&quot;elementType&quot;:&quot;word&quot;}"><path d="M124.27419,383.48721h26.57831v32.31088h-13.37601l-0.69486,-6.51429c-2.95315,4.92191 -8.13563,7.38286 -15.54744,7.38286c-5.03772,0 -9.56877,-1.11467 -13.59315,-3.344c-4.02438,-2.22933 -7.20915,-5.54439 -9.55429,-9.94515c-2.34514,-4.40077 -3.51772,-9.75696 -3.51772,-16.06858c0,-9.38058 2.62019,-16.67658 7.86058,-21.88802c5.24038,-5.21143 12.52191,-7.81715 21.84459,-7.81715c7.12229,0 12.78249,1.216 16.98058,3.648c4.1981,2.432 7.45524,6.45639 9.77144,12.07315l-18.84801,6.77486c-0.75276,-4.864 -3.15581,-7.29601 -7.20915,-7.29601c-3.35848,0 -5.81943,1.14362 -7.38286,3.43086c-1.56343,2.28724 -2.34514,5.92077 -2.34514,10.90058c0,5.32724 0.83962,9.13448 2.51886,11.42172c1.67924,2.28724 4.31391,3.43086 7.90401,3.43086c2.54781,0 4.56,-0.50667 6.03658,-1.52c1.47657,-1.01333 2.21486,-2.50438 2.21486,-4.47315v-0.08686h-9.64115z" data-paper-data="{&quot;elementType&quot;:&quot;letter&quot;,&quot;baseline&quot;:67,&quot;baselineProportion&quot;:0.9852941176470589,&quot;fontSize&quot;:100}"></path><path d="M204.44339,405.11466c0.98438,0 1.70819,-0.11581 2.17143,-0.34743l-1.56343,10.16229c-1.96876,1.1581 -4.11124,1.73714 -6.42743,1.73714c-3.53219,0 -6.48534,-0.62248 -8.85944,-1.86743c-2.3741,-1.24495 -3.96648,-3.05448 -4.77715,-5.42858c-1.33181,2.25829 -3.2861,4.03886 -5.86286,5.34172c-2.57676,1.30286 -5.776,1.95429 -9.59772,1.95429c-4.51657,0 -7.87505,-0.88305 -10.07544,-2.64914c-2.20038,-1.7661 -3.30057,-4.32838 -3.30057,-7.68686c0,-3.648 1.30286,-6.55772 3.90857,-8.72915c2.60572,-2.17143 6.94858,-3.92305 13.02858,-5.25486l8.59886,-1.91086v-1.73714c0,-1.33181 -0.33295,-2.3741 -0.99886,-3.12686c-0.66591,-0.75276 -1.63581,-1.12914 -2.90972,-1.12914c-1.38972,0 -2.48991,0.39086 -3.30057,1.17257c-0.81067,0.78171 -1.24495,2.15695 -1.30286,4.12572l-16.50287,-2.51886c0.46324,-4.97981 2.54781,-8.84496 6.25372,-11.59544c3.70591,-2.75048 9.03315,-4.12572 15.98173,-4.12572c7.70134,0 13.39049,1.47657 17.06744,4.42972c3.67696,2.95315 5.51543,7.44077 5.51543,13.46287v12.16001c0,2.3741 0.98438,3.56115 2.95315,3.56115M177.95195,405.80952c1.10019,0 1.99772,-0.36191 2.69257,-1.08572c0.69486,-0.72381 1.04229,-1.78057 1.04229,-3.17029v-4.16915l-2.86629,0.86857c-1.216,0.34743 -2.17143,0.912 -2.86629,1.69372c-0.69486,0.78171 -1.04229,1.72267 -1.04229,2.82286c0,0.98438 0.28952,1.73714 0.86857,2.25829c0.57905,0.52114 1.30286,0.78171 2.17143,0.78171z" data-paper-data="{&quot;elementType&quot;:&quot;letter&quot;,&quot;baseline&quot;:51,&quot;baselineProportion&quot;:0.9807692307692307,&quot;fontSize&quot;:100}"></path><path d="M240.40228,371.50092c2.02667,0 3.53219,0.34743 4.51657,1.04229l-1.65029,16.32915c-0.52114,-0.40533 -1.27391,-0.73829 -2.25829,-0.99886c-0.98438,-0.26057 -2.05562,-0.39086 -3.21372,-0.39086c-2.66362,0 -4.76267,0.63695 -6.29715,1.91086c-1.53448,1.27391 -2.30172,3.12686 -2.30172,5.55886v20.84573h-19.97716v-43.4286h17.97944l0.43429,10.85715c2.08457,-7.81715 6.34058,-11.72572 12.76801,-11.72572z" data-paper-data="{&quot;elementType&quot;:&quot;letter&quot;,&quot;baseline&quot;:51,&quot;baselineProportion&quot;:1,&quot;fontSize&quot;:100}"></path><path d="M295.46975,354.99805v60.80004h-17.97944l-0.608,-8.59886c-1.27391,2.95315 -3.06895,5.26934 -5.38515,6.94858c-2.31619,1.67924 -5.09562,2.51886 -8.33829,2.51886c-5.32724,0 -9.42401,-1.93981 -12.29029,-5.81943c-2.86629,-3.87962 -4.29943,-9.38058 -4.29943,-16.50287c0,-7.2381 1.4621,-12.85487 4.38629,-16.8503c2.92419,-3.99543 7.02096,-5.99315 12.29029,-5.99315c2.95315,0 5.44305,0.72381 7.46972,2.17143c2.02667,1.44762 3.61905,3.44534 4.77715,5.99315v-24.66745h19.97716M271.23659,402.68266c1.38972,0 2.44648,-0.65143 3.17029,-1.95429c0.72381,-1.30286 1.08572,-3.40191 1.08572,-6.29715v-0.69486c0,-2.77943 -0.34743,-4.83505 -1.04229,-6.16686c-0.69486,-1.33181 -1.7661,-1.99772 -3.21372,-1.99772c-1.50552,0 -2.63467,0.608 -3.38743,1.824c-0.75276,1.216 -1.12914,3.44534 -1.12914,6.688c0,3.24267 0.37638,5.48648 1.12914,6.73143c0.75276,1.24495 1.88191,1.86743 3.38743,1.86743z" data-paper-data="{&quot;elementType&quot;:&quot;letter&quot;,&quot;baseline&quot;:70,&quot;baselineProportion&quot;:0.9859154929577465,&quot;fontSize&quot;:100}"></path><path d="M347.75779,392.69408c0,2.20038 -0.14476,3.93753 -0.43429,5.21143h-27.62059c0.28952,2.14248 0.89752,3.5901 1.824,4.34286c0.92648,0.75276 2.31619,1.12914 4.16915,1.12914c2.83734,0 4.57448,-1.24495 5.21143,-3.73486l16.06858,4.34286c-0.98438,4.16915 -3.40191,7.32496 -7.25258,9.46744c-3.85067,2.14248 -8.52648,3.21372 -14.02744,3.21372c-8.22248,0 -14.46172,-1.93981 -18.71773,-5.81943c-4.256,-3.87962 -6.384,-9.46744 -6.384,-16.76344c0,-7.1802 2.09905,-12.73906 6.29715,-16.67658c4.1981,-3.93753 10.11886,-5.90629 17.7623,-5.90629c7.46972,0 13.18782,1.91086 17.1543,5.73258c3.96648,3.82172 5.94972,8.97524 5.94972,15.46058M324.74063,384.70321c-1.50552,0 -2.66362,0.43429 -3.47429,1.30286c-0.81067,0.86857 -1.33181,2.3741 -1.56343,4.51657h9.38058c-0.17371,-1.96876 -0.59352,-3.43086 -1.25943,-4.38629c-0.66591,-0.95543 -1.69372,-1.43314 -3.08343,-1.43314z" data-paper-data="{&quot;elementType&quot;:&quot;letter&quot;,&quot;baseline&quot;:51,&quot;baselineProportion&quot;:0.9807692307692307,&quot;fontSize&quot;:100}"></path><path d="M386.40924,371.50092c4.28496,0 7.62896,1.27391 10.03201,3.82172c2.40305,2.54781 3.60457,6.13791 3.60457,10.77029v29.70516h-19.97716v-24.49373c0,-1.91086 -0.23162,-3.22819 -0.69486,-3.952c-0.46324,-0.72381 -1.24495,-1.08572 -2.34514,-1.08572c-1.44762,0 -2.50438,0.5501 -3.17029,1.65029c-0.66591,1.10019 -0.99886,2.80838 -0.99886,5.12458v22.75659h-19.97716v-43.4286h17.97944l0.43429,9.46744c1.27391,-3.35848 3.18476,-5.92077 5.73258,-7.68686c2.54781,-1.7661 5.67467,-2.64914 9.38058,-2.64914z" data-paper-data="{&quot;elementType&quot;:&quot;letter&quot;,&quot;baseline&quot;:51,&quot;baselineProportion&quot;:1,&quot;fontSize&quot;:100}"></path></g></g></g></g><g data-paper-data="{&quot;elementType&quot;:&quot;emblem&quot;}" fill="url(#color-2)" stroke="none" stroke-width="1"><g data-paper-data="{&quot;baselineProportion&quot;:1,&quot;fontSize&quot;:100,&quot;baseline&quot;:66,&quot;elementType&quot;:&quot;word&quot;}"><path d="M374.34478,276.88888h-59.53299v-67.15791l0.8798,-65.10505h-0.8798l-37.53805,132.26296h-54.54747l-36.95151,-132.26296h-1.17306l0.8798,65.10505v67.15791h-59.82626v-193.55555h95.60471l22.28821,85.92693l8.50471,36.07172h0.58653l8.50471,-36.07172l22.28821,-85.92693h90.91246z" data-paper-data="{&quot;elementType&quot;:&quot;letter&quot;,&quot;baseline&quot;:66,&quot;baselineProportion&quot;:1,&quot;fontSize&quot;:100}"></path></g></g></g></svg>